<mxfile host="app.diagrams.net" modified="2024-05-09T03:43:21.210Z" agent="Mozilla/5.0 (X11; Linux x86_64) AppleWebKit/537.36 (KHTML, like Gecko) Chrome/124.0.0.0 Safari/537.36" version="24.3.1" etag="fDoHLbCFZje4-HYXq1ul" type="github">
  <diagram name="Page-1" id="D8-uOI2faBONkeNDH3dd">
    <mxGraphModel>
      <root>
        <mxCell id="0" />
        <mxCell id="1" parent="0" />
      </root>
    </mxGraphModel>
  </diagram>
</mxfile>
